<!DOCTYPE svg PUBLIC "-//W3C//DTD SVG 20010904//EN" "http://www.w3.org/TR/2001/REC-SVG-20010904/DTD/svg10.dtd">
<svg version="1.0" xmlns="http://www.w3.org/2000/svg" width="363px" height="252px" viewBox="0 0 3630 2520" preserveAspectRatio="xMidYMid meet">
<g id="layer101" fill="#987256" stroke="none">
 <path d="M2982 2068 c-7 -7 -12 -19 -12 -27 0 -9 -7 -24 -15 -35 -10 -13 -11 -24 -4 -37 14 -26 46 -24 86 7 40 30 44 65 8 88 -29 19 -47 20 -63 4z"/>
 <path d="M3101 1977 c-6 -8 -12 -36 -13 -63 -3 -47 -2 -49 27 -54 19 -3 37 -17 50 -37 11 -18 32 -36 46 -41 38 -14 71 -73 67 -119 -4 -50 -26 -53 -73 -11 -32 27 -92 57 -116 58 -18 0 -16 -32 2 -49 27 -25 17 -41 -27 -41 -49 0 -87 -22 -106 -62 -36 -76 -41 -88 -35 -94 10 -10 80 -7 135 6 48 12 54 11 73 -6 12 -10 27 -31 35 -47 11 -21 21 -27 43 -25 18 1 42 -8 64 -25 20 -15 41 -27 48 -27 18 0 100 -49 132 -79 16 -14 35 -38 43 -53 18 -35 48 -36 70 -3 22 33 12 81 -26 131 -32 43 -36 64 -18 93 12 19 2 51 -58 189 -8 18 -14 38 -14 45 -1 30 -63 108 -114 142 -42 28 -56 43 -56 61 0 27 -51 89 -91 110 -35 18 -73 18 -88 1z"/>
 <path d="M75 1903 c-12 -11 -15 -25 -11 -46 8 -41 24 -57 53 -57 37 0 92 -29 111 -58 16 -25 31 -111 35 -202 1 -27 11 -59 25 -80 25 -39 24 -52 -13 -132 -17 -37 -48 -77 -95 -122 -72 -68 -84 -94 -58 -129 21 -26 80 -9 89 26 6 22 44 69 190 231 5 5 26 0 51 -12 24 -11 51 -23 60 -26 24 -7 50 -50 42 -70 -4 -9 -41 -44 -84 -76 -59 -45 -84 -72 -103 -110 -21 -42 -24 -56 -15 -75 9 -19 7 -29 -11 -51 -11 -15 -21 -37 -21 -50 0 -31 -18 -40 -22 -12 -4 28 -33 36 -42 11 -4 -9 -4 -41 0 -71 5 -41 12 -57 30 -69 22 -14 28 -14 65 1 46 19 119 68 159 109 33 32 50 33 106 7 65 -32 77 -51 75 -117 -1 -47 -5 -61 -24 -76 -58 -46 -65 -56 -72 -98 -4 -24 -16 -54 -26 -67 -10 -13 -23 -39 -29 -58 -11 -31 -9 -38 14 -68 14 -19 41 -50 60 -70 29 -32 38 -35 67 -30 19 3 47 15 62 26 36 25 76 19 137 -22 68 -45 96 -37 106 32 5 32 2 40 -49 111 -17 24 -17 27 -2 51 10 14 23 26 30 26 16 0 25 22 25 60 0 43 26 95 54 108 32 14 34 43 6 97 -28 54 -26 58 20 35 21 -11 48 -20 60 -20 11 0 20 -4 20 -9 0 -13 117 -126 170 -164 25 -18 46 -43 48 -55 3 -19 -1 -21 -33 -19 -56 3 -66 -20 -32 -72 22 -33 33 -41 57 -41 45 0 122 -43 142 -79 10 -19 25 -31 38 -31 29 0 162 -38 174 -50 16 -16 62 -12 79 8 10 10 17 32 17 48 0 24 -17 44 -106 124 -105 95 -175 140 -247 160 -42 12 -61 43 -73 118 -6 38 -21 67 -75 148 -14 22 -51 82 -83 136 -72 121 -202 251 -325 323 -106 63 -157 115 -165 167 -5 29 -20 54 -59 95 -28 30 -61 60 -72 66 -11 7 -69 14 -129 17 l-110 5 -8 32 c-5 18 -18 38 -29 44 -14 7 -19 17 -15 31 8 32 -16 79 -63 121 -38 34 -46 37 -100 37 -42 0 -64 -5 -76 -17z"/>
 <path d="M2944 1402 c-18 -12 -34 -49 -34 -78 0 -50 -39 -93 -159 -173 -64 -43 -125 -89 -137 -102 -45 -51 -126 -161 -151 -206 -14 -27 -52 -84 -83 -128 -31 -44 -69 -101 -84 -127 -25 -43 -34 -50 -84 -64 -81 -23 -220 -97 -281 -149 -29 -25 -57 -45 -62 -45 -18 0 -8 -48 16 -74 23 -25 28 -26 130 -26 104 0 109 1 171 36 35 20 66 40 70 45 3 5 20 9 37 9 27 0 43 12 97 69 55 59 73 72 115 81 51 12 137 52 166 76 19 17 45 18 54 3 4 -5 18 -14 31 -19 19 -8 24 -17 24 -44 0 -52 23 -60 82 -30 44 22 50 23 76 10 16 -8 34 -22 41 -30 8 -9 31 -21 53 -26 26 -8 42 -19 48 -35 13 -35 28 -39 71 -20 36 17 40 17 57 2 24 -22 35 -21 58 4 17 19 18 21 1 30 -23 13 -22 24 8 53 29 29 35 95 10 116 -8 7 -15 22 -15 34 0 34 -44 67 -183 136 -130 64 -161 90 -155 131 4 25 40 54 81 63 24 6 34 0 71 -38 34 -35 48 -43 69 -39 21 4 28 -1 41 -26 18 -34 51 -47 96 -38 16 4 32 2 35 -3 3 -5 30 -17 59 -25 30 -9 62 -25 71 -35 27 -30 62 -26 80 10 24 47 18 69 -30 118 -25 24 -45 48 -45 53 0 4 16 28 35 53 40 52 41 56 20 56 -23 0 -18 16 10 28 18 8 25 19 25 40 0 37 -55 67 -95 52 -36 -14 -53 -5 -121 65 -34 34 -85 74 -115 89 -78 41 -83 45 -64 66 17 19 11 30 -17 30 -11 0 -18 -7 -18 -20 0 -11 -2 -20 -5 -20 -14 0 -79 32 -102 50 -27 21 -50 25 -69 12z"/>
 </g>
<g id="layer102" fill="#babeb1" stroke="none">
 <path d="M1440 2513 c-14 -2 -29 -10 -35 -17 -5 -7 -28 -16 -50 -20 -78 -15 -173 -79 -313 -211 -72 -68 -163 -179 -195 -240 -105 -195 -141 -314 -153 -505 l-6 -85 37 -47 c33 -42 62 -63 210 -156 103 -65 223 -205 304 -357 18 -33 41 -69 51 -80 10 -11 24 -33 33 -50 15 -31 33 -115 23 -115 -12 0 -76 43 -76 51 0 5 -27 36 -60 69 -41 41 -68 60 -85 60 -13 0 -43 9 -65 21 -38 20 -42 20 -66 4 -29 -19 -27 -50 7 -93 23 -30 24 -48 4 -56 -19 -7 -55 -88 -55 -123 0 -16 -15 -42 -40 -69 -43 -47 -48 -65 -25 -84 21 -17 62 -4 80 25 8 14 22 36 30 50 l15 24 63 -64 c40 -42 71 -65 85 -65 35 0 97 -36 157 -90 38 -35 64 -50 83 -50 15 0 52 -16 82 -35 30 -20 66 -38 80 -42 14 -3 34 -12 45 -19 11 -8 42 -14 69 -14 44 0 53 4 92 44 61 61 58 97 -11 109 -16 3 -68 16 -115 29 -71 19 -92 30 -127 65 -35 35 -39 44 -28 53 19 16 3 47 -31 62 -25 12 -32 32 -14 43 21 13 137 -58 221 -135 83 -76 88 -79 140 -82 l54 -3 -3 -40 c-4 -48 20 -109 56 -148 35 -37 110 -38 162 -4 39 26 99 45 176 56 38 5 61 16 94 44 39 33 122 67 165 67 31 0 60 22 131 98 75 81 104 90 104 35 1 -38 16 -62 76 -125 32 -33 69 -60 100 -72 27 -11 65 -30 84 -43 52 -35 141 -33 201 5 96 61 117 116 85 222 -16 55 -43 63 -86 26 -47 -39 -66 -41 -101 -12 -17 14 -39 26 -48 26 -10 0 -35 14 -56 30 -48 39 -79 46 -122 31 -19 -7 -35 -11 -37 -9 -1 1 -7 15 -14 31 -6 15 -22 31 -35 36 -12 5 -29 16 -36 25 -20 23 -51 20 -102 -12 -67 -42 -109 -59 -173 -73 -53 -12 -61 -17 -97 -65 -46 -63 -74 -84 -111 -84 -15 0 -29 -4 -32 -9 -4 -5 -35 -25 -70 -45 -60 -34 -70 -36 -150 -36 -108 0 -119 13 -56 68 62 54 159 107 257 142 47 16 87 31 88 32 1 2 14 26 30 53 16 28 54 86 85 130 32 44 65 96 75 115 10 19 49 77 88 128 62 83 83 102 191 175 128 87 186 151 186 206 0 38 8 43 39 26 14 -8 73 -37 131 -65 80 -39 121 -67 170 -115 74 -72 96 -85 140 -85 27 0 31 -3 25 -17 -30 -73 -28 -123 4 -123 9 0 32 16 51 35 26 27 34 44 35 78 1 23 7 52 14 64 6 13 11 73 11 151 l0 128 -33 40 c-19 21 -37 47 -40 57 -9 24 -38 18 -53 -11 -13 -27 5 -110 33 -150 53 -74 50 -93 -5 -39 -21 20 -41 37 -44 37 -4 0 -24 11 -44 25 -20 14 -43 25 -51 25 -9 0 -32 14 -53 30 -21 17 -46 30 -55 30 -10 0 -40 21 -67 46 -44 41 -53 45 -81 40 -93 -19 -97 -19 -97 3 0 11 -9 25 -20 31 -16 9 -20 21 -20 61 0 27 -7 66 -15 86 -8 19 -15 45 -15 57 0 26 -63 175 -96 228 -13 21 -24 47 -24 57 0 24 -41 72 -165 196 -108 107 -173 165 -188 165 -6 0 -31 13 -56 29 -25 16 -59 32 -76 36 -16 3 -38 14 -49 23 -16 15 -59 17 -410 19 -215 0 -402 -1 -416 -4z"/>
 <path d="M2983 2070 c-38 -22 -73 -86 -73 -130 0 -43 24 -85 86 -154 56 -62 120 -178 109 -196 -4 -6 1 -22 10 -36 12 -19 23 -24 43 -22 23 3 27 8 27 36 0 25 3 31 15 25 30 -13 100 -15 116 -2 15 12 14 31 -2 137 -4 24 -1 32 10 32 28 0 28 21 1 61 -32 45 -64 51 -87 17 l-15 -23 -17 33 c-9 18 -28 38 -41 44 -14 6 -25 20 -25 31 0 17 5 18 35 13 30 -6 35 -4 35 12 0 36 -126 142 -168 142 -15 0 -41 -9 -59 -20z"/>
 <path d="M57 1883 c-12 -11 -8 -398 4 -410 9 -9 14 -33 38 -183 4 -25 11 -53 17 -62 6 -11 7 -50 3 -100 -6 -69 -5 -88 11 -118 18 -34 64 -82 104 -105 9 -5 19 -26 22 -46 5 -31 0 -45 -30 -89 -32 -47 -36 -59 -36 -117 0 -62 1 -65 47 -114 26 -28 60 -57 75 -65 37 -19 158 -19 184 1 27 21 34 19 45 -15 13 -35 27 -37 61 -10 19 14 27 33 32 69 6 43 12 54 44 78 56 41 59 47 60 124 0 63 -3 74 -28 102 -34 39 -126 87 -168 87 -29 0 -62 -21 -62 -40 0 -12 -121 -100 -138 -100 -12 0 -12 3 0 23 8 12 18 38 22 58 3 21 13 42 20 48 19 16 28 58 17 79 -15 27 22 81 90 132 110 82 129 122 89 187 -13 22 -31 35 -60 43 -23 6 -51 22 -62 36 -29 32 -41 31 -90 -13 -29 -27 -39 -32 -34 -18 19 48 18 93 -2 132 -19 35 -29 84 -35 173 -2 29 2 36 21 38 18 3 22 10 22 40 0 63 -46 106 -69 65 -9 -16 -11 -16 -28 -1 -27 23 -79 48 -103 48 -12 0 -25 10 -32 25 -11 24 -37 33 -51 18z"/>
 <path d="M879 1099 c-26 -26 -22 -58 14 -141 31 -70 78 -100 123 -79 28 12 28 12 8 111 -7 34 -43 93 -73 118 -22 18 -48 15 -72 -9z"/>
 <path d="M2974 959 c-39 -11 -81 -50 -89 -82 -11 -43 18 -92 79 -131 53 -34 177 -96 192 -96 21 0 74 -53 74 -74 0 -44 32 -59 126 -60 l85 -1 60 62 c58 60 59 62 59 118 0 61 -12 95 -35 95 -8 0 -18 -8 -24 -17 -9 -17 -11 -17 -39 0 -17 9 -36 17 -43 17 -7 0 -32 9 -56 21 -29 14 -55 19 -76 16 -27 -4 -37 1 -68 34 -22 23 -46 39 -59 39 -12 0 -40 16 -61 35 -41 37 -66 41 -125 24z"/>
 <path d="M2508 622 c-29 -27 -39 -44 -35 -56 12 -30 36 -28 102 9 87 48 88 85 4 85 -21 0 -42 -12 -71 -38z"/>
 <path d="M532 398 c-7 -7 -12 -43 -12 -91 l0 -79 54 -55 c60 -64 85 -71 250 -72 l89 -1 49 49 c47 47 49 52 46 97 -4 57 -24 75 -62 55 -22 -12 -29 -12 -50 2 -27 18 -103 47 -125 47 -7 0 -26 -11 -43 -25 -45 -38 -67 -33 -117 30 -45 57 -58 64 -79 43z"/>
 </g>

</svg>